<svg width="597" height="176" viewBox="0 0 597 176" fill="none" xmlns="http://www.w3.org/2000/svg">
<line x1="16.25" y1="1.09278e-08" x2="16.25" y2="176" stroke="white" stroke-opacity="0.1" stroke-width="0.5" stroke-dasharray="2 2"/>
<line x1="32.25" y1="1.09278e-08" x2="32.25" y2="176" stroke="white" stroke-opacity="0.1" stroke-width="0.5" stroke-dasharray="2 2"/>
<line x1="48.25" y1="1.09278e-08" x2="48.25" y2="176" stroke="white" stroke-opacity="0.1" stroke-width="0.5" stroke-dasharray="2 2"/>
<line x1="64.25" y1="1.09278e-08" x2="64.25" y2="176" stroke="white" stroke-opacity="0.1" stroke-width="0.5" stroke-dasharray="2 2"/>
<line x1="80.25" y1="1.09278e-08" x2="80.25" y2="176" stroke="white" stroke-opacity="0.1" stroke-width="0.5" stroke-dasharray="2 2"/>
<line x1="96.25" y1="1.09278e-08" x2="96.25" y2="176" stroke="white" stroke-opacity="0.1" stroke-width="0.5" stroke-dasharray="2 2"/>
<line x1="112.25" y1="1.09278e-08" x2="112.25" y2="176" stroke="white" stroke-opacity="0.1" stroke-width="0.5" stroke-dasharray="2 2"/>
<line x1="128.25" y1="1.09278e-08" x2="128.25" y2="176" stroke="white" stroke-opacity="0.1" stroke-width="0.5" stroke-dasharray="2 2"/>
<line x1="144.25" y1="1.09278e-08" x2="144.25" y2="176" stroke="white" stroke-opacity="0.1" stroke-width="0.5" stroke-dasharray="2 2"/>
<line x1="160.25" y1="1.09278e-08" x2="160.25" y2="176" stroke="white" stroke-opacity="0.1" stroke-width="0.5" stroke-dasharray="2 2"/>
<line x1="176.25" y1="1.09278e-08" x2="176.25" y2="176" stroke="white" stroke-opacity="0.1" stroke-width="0.5" stroke-dasharray="2 2"/>
<line x1="192.25" y1="1.09278e-08" x2="192.25" y2="176" stroke="white" stroke-opacity="0.1" stroke-width="0.5" stroke-dasharray="2 2"/>
<line x1="208.25" y1="1.09278e-08" x2="208.25" y2="176" stroke="white" stroke-opacity="0.1" stroke-width="0.5" stroke-dasharray="2 2"/>
<line x1="224.25" y1="1.09278e-08" x2="224.25" y2="176" stroke="white" stroke-opacity="0.1" stroke-width="0.5" stroke-dasharray="2 2"/>
<line x1="240.25" y1="1.09278e-08" x2="240.25" y2="176" stroke="white" stroke-opacity="0.1" stroke-width="0.5" stroke-dasharray="2 2"/>
<line x1="256.25" y1="1.09278e-08" x2="256.25" y2="176" stroke="white" stroke-opacity="0.1" stroke-width="0.5" stroke-dasharray="2 2"/>
<line x1="272.25" y1="1.09278e-08" x2="272.25" y2="176" stroke="white" stroke-opacity="0.1" stroke-width="0.5" stroke-dasharray="2 2"/>
<line x1="288.25" y1="1.09278e-08" x2="288.25" y2="176" stroke="white" stroke-opacity="0.1" stroke-width="0.5" stroke-dasharray="2 2"/>
<line x1="304.25" y1="1.09278e-08" x2="304.25" y2="176" stroke="white" stroke-opacity="0.1" stroke-width="0.5" stroke-dasharray="2 2"/>
<line x1="320.25" y1="1.09278e-08" x2="320.25" y2="176" stroke="white" stroke-opacity="0.1" stroke-width="0.5" stroke-dasharray="2 2"/>
<line x1="336.25" y1="1.09278e-08" x2="336.25" y2="176" stroke="white" stroke-opacity="0.1" stroke-width="0.5" stroke-dasharray="2 2"/>
<line x1="352.25" y1="1.09278e-08" x2="352.25" y2="176" stroke="white" stroke-opacity="0.1" stroke-width="0.5" stroke-dasharray="2 2"/>
<line x1="368.25" y1="1.09278e-08" x2="368.25" y2="176" stroke="white" stroke-opacity="0.1" stroke-width="0.5" stroke-dasharray="2 2"/>
<line x1="384.25" y1="1.09278e-08" x2="384.25" y2="176" stroke="white" stroke-opacity="0.1" stroke-width="0.5" stroke-dasharray="2 2"/>
<line x1="400.25" y1="1.09278e-08" x2="400.25" y2="176" stroke="white" stroke-opacity="0.1" stroke-width="0.5" stroke-dasharray="2 2"/>
<line x1="416.25" y1="1.09278e-08" x2="416.25" y2="176" stroke="white" stroke-opacity="0.1" stroke-width="0.5" stroke-dasharray="2 2"/>
<line x1="432.25" y1="1.09278e-08" x2="432.25" y2="176" stroke="white" stroke-opacity="0.1" stroke-width="0.5" stroke-dasharray="2 2"/>
<line x1="448.25" y1="1.09278e-08" x2="448.25" y2="176" stroke="white" stroke-opacity="0.1" stroke-width="0.5" stroke-dasharray="2 2"/>
<line x1="464.25" y1="1.09278e-08" x2="464.25" y2="176" stroke="white" stroke-opacity="0.1" stroke-width="0.5" stroke-dasharray="2 2"/>
<line x1="480.25" y1="1.09278e-08" x2="480.25" y2="176" stroke="white" stroke-opacity="0.1" stroke-width="0.5" stroke-dasharray="2 2"/>
<line x1="496.25" y1="1.09278e-08" x2="496.25" y2="176" stroke="white" stroke-opacity="0.1" stroke-width="0.5" stroke-dasharray="2 2"/>
<line x1="512.25" y1="1.09278e-08" x2="512.25" y2="176" stroke="white" stroke-opacity="0.1" stroke-width="0.5" stroke-dasharray="2 2"/>
<line x1="528.25" y1="1.09278e-08" x2="528.25" y2="176" stroke="white" stroke-opacity="0.1" stroke-width="0.5" stroke-dasharray="2 2"/>
<line x1="544.25" y1="1.09278e-08" x2="544.25" y2="176" stroke="white" stroke-opacity="0.1" stroke-width="0.5" stroke-dasharray="2 2"/>
<line x1="560.25" y1="1.09278e-08" x2="560.25" y2="176" stroke="white" stroke-opacity="0.1" stroke-width="0.5" stroke-dasharray="2 2"/>
<line x1="576.25" y1="1.09278e-08" x2="576.25" y2="176" stroke="white" stroke-opacity="0.1" stroke-width="0.5" stroke-dasharray="2 2"/>
<line x1="592.25" y1="1.09278e-08" x2="592.25" y2="176" stroke="white" stroke-opacity="0.1" stroke-width="0.5" stroke-dasharray="2 2"/>
<line y1="14.2955" x2="595" y2="14.2955" stroke="white" stroke-opacity="0.1" stroke-width="0.5" stroke-dasharray="2 2"/>
<line y1="28.8409" x2="595" y2="28.8409" stroke="white" stroke-opacity="0.1" stroke-width="0.5" stroke-dasharray="2 2"/>
<line y1="43.3864" x2="595" y2="43.3864" stroke="white" stroke-opacity="0.1" stroke-width="0.5" stroke-dasharray="2 2"/>
<line y1="57.9318" x2="595" y2="57.9318" stroke="white" stroke-opacity="0.1" stroke-width="0.5" stroke-dasharray="2 2"/>
<line y1="72.4773" x2="595" y2="72.4773" stroke="white" stroke-opacity="0.1" stroke-width="0.5" stroke-dasharray="2 2"/>
<line y1="87.0227" x2="595" y2="87.0227" stroke="white" stroke-opacity="0.1" stroke-width="0.5" stroke-dasharray="2 2"/>
<line y1="101.568" x2="595" y2="101.568" stroke="white" stroke-opacity="0.1" stroke-width="0.5" stroke-dasharray="2 2"/>
<line y1="116.114" x2="595" y2="116.114" stroke="white" stroke-opacity="0.1" stroke-width="0.5" stroke-dasharray="2 2"/>
<line y1="130.659" x2="595" y2="130.659" stroke="white" stroke-opacity="0.1" stroke-width="0.5" stroke-dasharray="2 2"/>
<line y1="145.205" x2="595" y2="145.205" stroke="white" stroke-opacity="0.1" stroke-width="0.5" stroke-dasharray="2 2"/>
<line y1="159.75" x2="595" y2="159.75" stroke="white" stroke-opacity="0.1" stroke-width="0.5" stroke-dasharray="2 2"/>
<line x1="2" y1="175.75" x2="597" y2="175.75" stroke="white" stroke-opacity="0.1" stroke-width="0.5" stroke-dasharray="2 2"/>
</svg>
