<svg width="63" height="63" viewBox="0 0 63 63" fill="none" xmlns="http://www.w3.org/2000/svg">
<path d="M31.5 63C48.8971 63 63 48.8971 63 31.5C63 14.103 48.8971 0 31.5 0C14.103 0 0 14.103 0 31.5C0 48.8971 14.103 63 31.5 63Z" fill="#00B22D"/>
<path d="M44.9852 24.3059H27.2409V23.2042C27.2409 21.0406 29.5236 21.0001 30.6864 21.0001C32.0215 21.0001 32.6245 21.1222 32.6245 21.1222V15.1633C32.6245 15.1633 31.4186 15 29.782 15C26.0781 15 19.2301 15.9796 19.2301 23.4079V24.347H16V29.857H19.2301V41.4901H16.2153V47H30.7725V41.4901H27.2409V29.857H36.9314V41.4901H33.9166V47H48V41.4901H44.9852V24.3059Z" fill="white"/>
</svg>
